<mxfile host="app.diagrams.net" modified="2020-08-12T19:20:06.666Z" agent="5.0 (Windows NT 10.0; Win64; x64) AppleWebKit/537.36 (KHTML, like Gecko) Chrome/84.0.4147.105 Safari/537.36 Edg/84.0.522.58" etag="iHw_rvP6XrsYrcAUc5KL" version="13.6.2" type="github">
  <diagram id="xu6ZPtf49BYFuctMmxxb" name="第 1 页">
    <mxGraphModel dx="898" dy="482" grid="1" gridSize="10" guides="1" tooltips="1" connect="1" arrows="1" fold="1" page="1" pageScale="1" pageWidth="1654" pageHeight="2336" math="0" shadow="0">
      <root>
        <mxCell id="0" />
        <mxCell id="1" parent="0" />
        <mxCell id="a3hWxj5Mun3ZJ8yXzgUf-2" value="" style="shape=orEllipse;perimeter=ellipsePerimeter;whiteSpace=wrap;html=1;backgroundOutline=1;strokeWidth=1;shadow=1;fillColor=#ffe6cc;strokeColor=#d79b00;" parent="1" vertex="1">
          <mxGeometry x="70" y="140" width="420" height="425" as="geometry" />
        </mxCell>
        <mxCell id="a3hWxj5Mun3ZJ8yXzgUf-10" value="0" style="rounded=1;whiteSpace=wrap;html=1;shadow=1;strokeColor=#000000;strokeWidth=1;fillColor=#FFFFFF;gradientColor=none;fontSize=21;" parent="1" vertex="1">
          <mxGeometry x="340" y="410" width="40" height="40" as="geometry" />
        </mxCell>
        <mxCell id="a3hWxj5Mun3ZJ8yXzgUf-11" value="1" style="rounded=1;whiteSpace=wrap;html=1;shadow=1;strokeColor=#000000;strokeWidth=1;fillColor=#FFFFFF;gradientColor=none;fontSize=21;" parent="1" vertex="1">
          <mxGeometry x="340" y="250" width="40" height="40" as="geometry" />
        </mxCell>
        <mxCell id="a3hWxj5Mun3ZJ8yXzgUf-12" value="2" style="rounded=1;whiteSpace=wrap;html=1;shadow=1;strokeColor=#000000;strokeWidth=1;fillColor=#FFFFFF;gradientColor=none;fontSize=21;" parent="1" vertex="1">
          <mxGeometry x="190" y="250" width="40" height="40" as="geometry" />
        </mxCell>
        <mxCell id="a3hWxj5Mun3ZJ8yXzgUf-13" value="3" style="rounded=1;whiteSpace=wrap;html=1;shadow=1;strokeColor=#000000;strokeWidth=1;fillColor=#FFFFFF;gradientColor=none;fontSize=21;" parent="1" vertex="1">
          <mxGeometry x="190" y="410" width="40" height="40" as="geometry" />
        </mxCell>
        <mxCell id="a3hWxj5Mun3ZJ8yXzgUf-15" value="存入一个数时" style="rounded=1;whiteSpace=wrap;html=1;shadow=1;strokeColor=#000000;strokeWidth=1;fillColor=#FFFFFF;gradientColor=none;fontSize=21;" parent="1" vertex="1">
          <mxGeometry x="840" y="200" width="170" height="40" as="geometry" />
        </mxCell>
        <mxCell id="a3hWxj5Mun3ZJ8yXzgUf-17" value="" style="shape=singleArrow;whiteSpace=wrap;html=1;shadow=1;strokeColor=#b85450;strokeWidth=1;fillColor=#f8cecc;fontSize=21;" parent="1" vertex="1">
          <mxGeometry x="680" y="200" width="100" height="45" as="geometry" />
        </mxCell>
        <mxCell id="a3hWxj5Mun3ZJ8yXzgUf-21" value="" style="shape=singleArrow;whiteSpace=wrap;html=1;shadow=1;strokeColor=#000000;strokeWidth=1;fillColor=#FFFFFF;gradientColor=none;fontSize=21;rotation=-190;" parent="1" vertex="1">
          <mxGeometry x="1300" y="117.5" width="60" height="25" as="geometry" />
        </mxCell>
        <mxCell id="a3hWxj5Mun3ZJ8yXzgUf-22" value="" style="shape=singleArrow;whiteSpace=wrap;html=1;shadow=1;strokeColor=#b85450;strokeWidth=1;fillColor=#f8cecc;fontSize=21;rotation=-150;" parent="1" vertex="1">
          <mxGeometry x="427.99" y="462.5" width="110" height="35" as="geometry" />
        </mxCell>
        <mxCell id="a3hWxj5Mun3ZJ8yXzgUf-23" value="&lt;p style=&quot;line-height: 90%&quot;&gt;&lt;font style=&quot;font-size: 28px&quot;&gt;rear&lt;/font&gt;&lt;/p&gt;" style="rounded=1;whiteSpace=wrap;html=1;shadow=1;strokeWidth=1;fillColor=#fff2cc;strokeColor=#d6b656;" parent="1" vertex="1">
          <mxGeometry x="1370" y="102.5" width="110" height="40" as="geometry" />
        </mxCell>
        <mxCell id="a3hWxj5Mun3ZJ8yXzgUf-24" value="" style="shape=orEllipse;perimeter=ellipsePerimeter;whiteSpace=wrap;html=1;backgroundOutline=1;strokeWidth=1;shadow=1;fillColor=#ffe6cc;strokeColor=#d79b00;" parent="1" vertex="1">
          <mxGeometry x="1080" y="107.5" width="216" height="210" as="geometry" />
        </mxCell>
        <mxCell id="a3hWxj5Mun3ZJ8yXzgUf-25" value="5" style="rounded=1;whiteSpace=wrap;html=1;shadow=1;strokeColor=#b85450;strokeWidth=1;fillColor=#f8cecc;fontSize=21;" parent="1" vertex="1">
          <mxGeometry x="1210" y="237.5" width="60" height="30" as="geometry" />
        </mxCell>
        <mxCell id="a3hWxj5Mun3ZJ8yXzgUf-26" value="&lt;p style=&quot;line-height: 90%&quot;&gt;&lt;span style=&quot;font-size: 28px&quot;&gt;front&lt;/span&gt;&lt;br&gt;&lt;/p&gt;" style="rounded=1;whiteSpace=wrap;html=1;shadow=1;strokeWidth=1;fillColor=#fff2cc;strokeColor=#d6b656;" parent="1" vertex="1">
          <mxGeometry x="1370" y="292.5" width="130" height="50" as="geometry" />
        </mxCell>
        <mxCell id="a3hWxj5Mun3ZJ8yXzgUf-27" value="" style="shape=singleArrow;whiteSpace=wrap;html=1;shadow=1;strokeColor=#000000;strokeWidth=1;fillColor=#FFFFFF;gradientColor=none;fontSize=21;rotation=-150;" parent="1" vertex="1">
          <mxGeometry x="1290" y="282.5" width="70" height="30" as="geometry" />
        </mxCell>
        <mxCell id="a3hWxj5Mun3ZJ8yXzgUf-28" value="当取出一个数时&lt;br&gt;此时当数组为空" style="rounded=1;whiteSpace=wrap;html=1;shadow=1;strokeColor=#000000;strokeWidth=1;fillColor=#FFFFFF;gradientColor=none;fontSize=21;" parent="1" vertex="1">
          <mxGeometry x="830" y="445" width="180" height="90" as="geometry" />
        </mxCell>
        <mxCell id="a3hWxj5Mun3ZJ8yXzgUf-31" value="" style="shape=orEllipse;perimeter=ellipsePerimeter;whiteSpace=wrap;html=1;backgroundOutline=1;strokeWidth=1;shadow=1;fillColor=#ffe6cc;strokeColor=#d79b00;" parent="1" vertex="1">
          <mxGeometry x="1060" y="385" width="216" height="210" as="geometry" />
        </mxCell>
        <mxCell id="a3hWxj5Mun3ZJ8yXzgUf-32" value="" style="shape=singleArrow;whiteSpace=wrap;html=1;shadow=1;strokeColor=#000000;strokeWidth=1;fillColor=#FFFFFF;gradientColor=none;fontSize=21;rotation=-190;" parent="1" vertex="1">
          <mxGeometry x="1276" y="405" width="70" height="35" as="geometry" />
        </mxCell>
        <mxCell id="a3hWxj5Mun3ZJ8yXzgUf-33" value="&lt;p style=&quot;line-height: 90%&quot;&gt;&lt;font style=&quot;font-size: 28px&quot;&gt;rear，&lt;/font&gt;&lt;span style=&quot;font-size: 28px&quot;&gt;front&lt;/span&gt;&lt;/p&gt;" style="rounded=1;whiteSpace=wrap;html=1;shadow=1;strokeWidth=1;fillColor=#fff2cc;strokeColor=#d6b656;" parent="1" vertex="1">
          <mxGeometry x="1360" y="385" width="170" height="50" as="geometry" />
        </mxCell>
        <mxCell id="a3hWxj5Mun3ZJ8yXzgUf-34" value="也就是两者相等时数组为空" style="rounded=1;whiteSpace=wrap;html=1;shadow=1;strokeColor=#6c8ebf;strokeWidth=1;fillColor=#dae8fc;fontSize=21;" parent="1" vertex="1">
          <mxGeometry x="1305" y="457.5" width="280" height="40" as="geometry" />
        </mxCell>
        <mxCell id="xlxd_JDRlvjybvkr8gjv-2" value="&lt;p style=&quot;line-height: 90%&quot;&gt;&lt;font style=&quot;font-size: 28px&quot;&gt;rear，&lt;/font&gt;&lt;span style=&quot;font-size: 28px&quot;&gt;front&lt;/span&gt;&lt;/p&gt;" style="rounded=1;whiteSpace=wrap;html=1;shadow=1;strokeWidth=1;fillColor=#dae8fc;strokeColor=#6c8ebf;" vertex="1" parent="1">
          <mxGeometry x="550" y="485" width="190" height="60" as="geometry" />
        </mxCell>
        <mxCell id="xlxd_JDRlvjybvkr8gjv-3" value="" style="shape=singleArrow;direction=south;whiteSpace=wrap;html=1;shadow=1;strokeColor=#b85450;strokeWidth=1;fillColor=#f8cecc;" vertex="1" parent="1">
          <mxGeometry x="897.5" y="290" width="45" height="130" as="geometry" />
        </mxCell>
      </root>
    </mxGraphModel>
  </diagram>
</mxfile>
